<?xml version="1.0" encoding="utf-8"?>
<!-- Generator: Adobe Illustrator 21.0.0, SVG Export Plug-In . SVG Version: 6.00 Build 0)  -->
<svg version="1.1" id="Layer_1" xmlns="http://www.w3.org/2000/svg" xmlns:xlink="http://www.w3.org/1999/xlink" x="0px" y="0px"
	 width="699.7px" height="263.3px" viewBox="0 0 699.7 263.3" style="enable-background:new 0 0 699.7 263.3;" xml:space="preserve"
	>
<style type="text/css">
	.st0{fill:#FFFFFF;}
	.st1{clip-path:url(#SVGID_2_);}
	.st2{fill:#34BEEB;}
</style>
<g>
	<g>
		<path class="st0" d="M81.9,200.2c-2.5-1.1-3-1.9-3-5.4c0-8.7,0.6-18.2,0.8-20.7c0.2-2.4,0.6-4.1,1.9-4.1c1.4,0,1.6,1.4,1.6,2.7
			c0,2.1,0.6,5.4,1.4,8.1c3.5,11.7,12.8,16,22.6,16c14.2,0,21.2-9.7,21.2-18c0-7.8-2.4-15-15.5-25.3l-7.3-5.7
			c-17.4-13.6-23.4-24.7-23.4-37.5c0-17.4,14.6-29.9,36.6-29.9c10.3,0,16.9,1.6,21,2.7c1.4,0.3,2.2,0.8,2.2,1.9
			c0,2.1-0.6,6.6-0.6,19c0,3.5-0.5,4.7-1.7,4.7c-1.1,0-1.6-0.9-1.6-2.8c0-1.4-0.8-6.3-4.1-10.4c-2.4-3-7-7.8-17.3-7.8
			c-11.7,0-18.8,6.8-18.8,16.3c0,7.3,3.6,12.8,16.8,22.8l4.4,3.3c19.1,14.4,26,25.3,26,40.4c0,9.2-3.5,20.1-14.9,27.5
			c-7.9,5.1-16.8,6.5-25.2,6.5C95.8,204.4,88.7,203.3,81.9,200.2z"/>
		<path class="st0" d="M182.7,128.4c0-24.1,0-28.5-0.3-33.6c-0.3-5.4-1.6-7.9-6.8-9c-1.3-0.3-4-0.5-6.2-0.5c-1.7,0-2.7-0.3-2.7-1.4
			c0-1.1,1.1-1.4,3.5-1.4c8.4,0,18.4,0.5,22.8,0.5c6.5,0,15.7-0.5,22.9-0.5c19.8,0,26.9,6.6,29.4,9c3.5,3.3,7.9,10.4,7.9,18.8
			c0,22.5-16.5,38.3-38.9,38.3c-0.8,0-2.5,0-3.3-0.2c-0.8-0.2-1.9-0.3-1.9-1.4c0-1.3,1.1-1.7,4.4-1.7c8.9,0,21.2-10,21.2-26.1
			c0-5.2-0.5-15.8-9.3-23.7c-5.7-5.2-12.2-6.2-15.8-6.2c-2.4,0-4.7,0.2-6.2,0.6c-0.8,0.3-1.3,1.3-1.3,3v63.3c0,14.6,0,27.1,0.8,33.9
			c0.5,4.4,1.4,7.9,6.2,8.5c2.2,0.3,5.7,0.6,8.1,0.6c1.7,0,2.5,0.5,2.5,1.3c0,1.1-1.3,1.6-3,1.6c-10.4,0-20.4-0.5-24.5-0.5
			c-3.6,0-13.6,0.5-19.9,0.5c-2.1,0-3.2-0.5-3.2-1.6c0-0.8,0.6-1.3,2.5-1.3c2.4,0,4.3-0.3,5.7-0.6c3.2-0.6,4-4.1,4.6-8.7
			c0.8-6.6,0.8-19.2,0.8-33.7V128.4z"/>
		<path class="st0" d="M389.2,128.4c0-24.1,0-28.5-0.3-33.6c-0.3-5.4-1.6-7.9-6.8-9c-1.3-0.3-4-0.5-6.2-0.5c-1.7,0-2.7-0.3-2.7-1.4
			c0-1.1,1.1-1.4,3.5-1.4c8.4,0,18.4,0.5,21.7,0.5c5.4,0,17.4-0.5,22.3-0.5c10,0,20.6,0.9,29.1,6.8c4.4,3,10.8,11.1,10.8,21.7
			c0,11.7-4.9,22.5-20.9,35.4c14.1,17.7,25,31.8,34.3,41.6c8.9,9.2,15.4,10.3,17.7,10.8c1.7,0.3,3.2,0.5,4.4,0.5
			c1.3,0,1.9,0.5,1.9,1.3c0,1.3-1.1,1.6-3,1.6h-15c-8.9,0-12.8-0.8-16.9-3c-6.8-3.6-12.8-11.1-21.7-23.3
			c-6.3-8.7-13.6-19.5-15.7-21.8c-0.8-0.9-1.7-1.1-2.8-1.1l-13.8-0.3c-0.8,0-1.3,0.3-1.3,1.3v2.2c0,14.7,0,27.2,0.8,33.9
			c0.5,4.6,1.4,8.1,6.2,8.7c2.4,0.3,5.9,0.6,7.8,0.6c1.3,0,1.9,0.5,1.9,1.3c0,1.1-1.1,1.6-3.2,1.6c-9.2,0-20.9-0.5-23.3-0.5
			c-3,0-13,0.5-19.3,0.5c-2.1,0-3.2-0.5-3.2-1.6c0-0.8,0.6-1.3,2.5-1.3c2.4,0,4.3-0.3,5.7-0.6c3.2-0.6,4-4.1,4.6-8.7
			c0.8-6.6,0.8-19.2,0.8-33.7V128.4z M407.8,140.9c0,1.7,0.3,2.4,1.4,2.8c3.3,1.1,8.1,1.6,12,1.6c6.3,0,8.4-0.6,11.2-2.7
			c4.7-3.5,9.3-10.8,9.3-23.7c0-22.5-14.9-29-24.2-29c-4,0-6.8,0.2-8.4,0.6c-1.1,0.3-1.4,1-1.4,2.2V140.9z"/>
		<path class="st0" d="M523.7,91.4L500.1,92c-9.2,0.3-13,1.1-15.4,4.6c-1.6,2.4-2.4,4.3-2.7,5.5c-0.3,1.3-0.8,1.9-1.7,1.9
			c-1.1,0-1.4-0.8-1.4-2.5c0-2.5,3-16.9,3.3-18.2c0.5-2.1,1-3,1.9-3c1.3,0,2.8,1.6,6.8,1.9c4.6,0.5,10.6,0.8,15.8,0.8h62.7
			c5.1,0,8.5-0.5,10.9-0.8c2.4-0.5,3.6-0.8,4.3-0.8c1.1,0,1.3,1,1.3,3.3c0,3.3-0.5,14.2-0.5,18.4c-0.2,1.6-0.5,2.5-1.4,2.5
			c-1.3,0-1.6-0.8-1.7-3.2l-0.2-1.7c-0.3-4.1-4.6-8.5-18.7-8.9l-19.9-0.5v64.9c0,14.6,0,27.1,0.8,33.9c0.5,4.4,1.4,7.9,6.2,8.5
			c2.2,0.3,5.7,0.6,8.1,0.6c1.7,0,2.5,0.5,2.5,1.3c0,1.1-1.3,1.6-3,1.6c-10.4,0-20.4-0.5-24.8-0.5c-3.6,0-13.6,0.5-19.9,0.5
			c-2.1,0-3.2-0.5-3.2-1.6c0-0.8,0.6-1.3,2.5-1.3c2.4,0,4.3-0.3,5.7-0.6c3.2-0.6,4.1-4.1,4.6-8.7c0.8-6.6,0.8-19.2,0.8-33.7V91.4z"
			/>
		<path class="st0" d="M630.7,112.9c-0.2-0.6-0.3-1.4-0.8-1.4c-0.5,0-0.8,0.8-1,1.4l-27.1,71.8c-1.6,4-2.4,7.8-2.4,9.7
			c0,2.8,1.4,4.9,6.3,4.9h2.4c1.9,0,2.4,0.3,2.4,1.3c0,1.3-1,1.6-2.7,1.6c-5.1,0-11.9-0.5-16.8-0.5c-1.7,0-10.4,0.5-18.7,0.5
			c-2.1,0-3-0.3-3-1.6c0-1,0.6-1.3,1.9-1.3c1.4,0,3.6-0.2,4.9-0.3c7.3-1,10.3-6.3,13.5-14.2l39.7-99.4c1.9-4.6,2.9-6.3,4.4-6.3
			c1.4,0,2.4,1.4,4,5.1c3.8,8.7,29.1,73.3,39.2,97.3c6,14.2,10.6,16.5,13.9,17.2c2.4,0.5,4.7,0.6,6.6,0.6c1.3,0,2.1,0.2,2.1,1.3
			c0,1.3-1.4,1.6-7.3,1.6c-5.7,0-17.3,0-29.9-0.3c-2.8-0.2-4.7-0.2-4.7-1.3c0-1,0.6-1.3,2.2-1.4c1.1-0.3,2.2-1.7,1.4-3.6
			L630.7,112.9z"/>
		<path class="st0" d="M303.7,112.9c-0.2-0.6-0.3-1.4-0.8-1.4c-0.5,0-0.8,0.8-1,1.4l-27.1,71.8c-1.6,4-2.4,7.8-2.4,9.7
			c0,2.8,1.4,4.9,6.3,4.9h2.4c1.9,0,2.4,0.3,2.4,1.3c0,1.3-1,1.6-2.7,1.6c-5.1,0-11.9-0.5-16.8-0.5c-1.7,0-10.4,0.5-18.7,0.5
			c-2.1,0-3-0.3-3-1.6c0-1,0.6-1.3,1.9-1.3c1.4,0,3.6-0.2,4.9-0.3c7.3-1,10.3-6.3,13.5-14.2l39.7-99.4c1.9-4.6,2.9-6.3,4.4-6.3
			c1.4,0,2.4,1.4,4,5.1c3.8,8.7,29.1,73.3,39.2,97.3c6,14.2,10.6,16.5,13.9,17.2c2.4,0.5,4.7,0.6,6.6,0.6c1.3,0,2.1,0.2,2.1,1.3
			c0,1.3-1.4,1.6-7.3,1.6c-5.7,0-17.3,0-29.9-0.3c-2.8-0.2-4.7-0.2-4.7-1.3c0-1,0.6-1.3,2.2-1.4c1.1-0.3,2.2-1.7,1.4-3.6
			L303.7,112.9z"/>
	</g>
	<g>
		<path class="st0" d="M406.6,248.5h5v10.1c-2.8,3.1-6.8,4.6-12,4.6c-4.4,0-8-1.4-11-4.3s-4.4-6.5-4.4-10.9c0-4.4,1.5-8.1,4.5-11
			c3-2.9,6.6-4.4,10.9-4.4c4.3,0,7.8,1.2,10.6,3.7l-2.7,3.8c-1.2-1-2.3-1.7-3.5-2.1c-1.2-0.4-2.5-0.6-4.1-0.6c-3,0-5.5,1-7.5,2.9
			s-3,4.5-3,7.6c0,3.1,1,5.7,3,7.6c2,1.9,4.4,2.9,7.2,2.9c2.8,0,5.2-0.6,7.1-1.8V248.5z"/>
		<path class="st0" d="M446.5,262.9v-29.6h5v24.9H465v4.7H446.5z"/>
		<path class="st0" d="M522.8,258.8c-3,2.9-6.7,4.4-11.1,4.4c-4.4,0-8.1-1.5-11.1-4.4c-3-2.9-4.5-6.6-4.5-10.9s1.5-8,4.5-10.9
			c3-2.9,6.7-4.4,11.1-4.4c4.4,0,8.1,1.5,11.1,4.4c3,2.9,4.5,6.6,4.5,10.9S525.8,255.9,522.8,258.8z M519.2,240.3
			c-2-2.1-4.5-3.1-7.4-3.1s-5.4,1-7.4,3.1c-2,2.1-3,4.6-3,7.6c0,3,1,5.5,3,7.6c2,2.1,4.5,3.1,7.4,3.1s5.4-1,7.4-3.1
			c2-2.1,3-4.6,3-7.6C522.2,244.9,521.2,242.4,519.2,240.3z"/>
		<path class="st0" d="M575,262.9h-13v-29.6h11.5c2,0,3.7,0.2,5.2,0.7c1.5,0.5,2.5,1.1,3.2,1.9c1.4,1.5,2,3.2,2,5.2
			c0,2.3-0.7,4-2.2,5.2c-0.5,0.4-0.9,0.6-1.1,0.7s-0.6,0.3-1.1,0.5c1.8,0.4,3.3,1.2,4.4,2.5c1.1,1.3,1.6,2.8,1.6,4.7
			c0,2.1-0.7,3.9-2.1,5.5C581.9,262,579,262.9,575,262.9z M567,245.6h6.4c3.6,0,5.4-1.2,5.4-3.7c0-1.4-0.4-2.4-1.3-3.1
			c-0.9-0.6-2.2-0.9-4.1-0.9H567V245.6z M567,258.3h7.8c1.8,0,3.2-0.3,4.2-0.9c1-0.6,1.5-1.7,1.5-3.3c0-2.6-2.1-3.9-6.3-3.9H567
			V258.3z"/>
		<path class="st0" d="M624.2,256.2l-3,6.7h-5.3l13-29.6h5.3l13,29.6H642l-3-6.7H624.2z M637,251.6l-5.4-12.2l-5.4,12.2H637z"/>
		<path class="st0" d="M679.8,262.9v-29.6h5v24.9h13.5v4.7H679.8z"/>
	</g>
	<g>
		<defs>
			<path id="SVGID_1_" d="M143.5,69.2l27-51.4c0,0-34-2.5-53.6-0.8c-19.7,1.7-90.2,18.5-91.6,81.7c-0.6,39.6,12.4,62.6,29.2,81.7
				c12.4-12.9,31.7-32.6,31.7-32.6s-15.2-15.7-15.2-38.8S93,69.2,118.8,69.2C135.4,69.2,143.2,69.5,143.5,69.2z"/>
		</defs>
		<clipPath id="SVGID_2_">
			<use xlink:href="#SVGID_1_"  style="overflow:visible;"/>
		</clipPath>
		<g class="st1">
			<g>
				<polygon class="st2" points="139.7,76.6 133.7,76.4 155.6,5.4 178.4,2.2 				"/>
				<polygon class="st2" points="128.1,76.6 124.7,76.4 127.1,2.1 147.4,0 				"/>
				<polygon class="st2" points="119.6,76.6 114.8,76.4 99.2,1.7 120.4,0 				"/>
				<polygon class="st2" points="109.3,75.3 103.4,76.4 72.6,8.8 93.8,7.1 				"/>
				<polygon class="st2" points="99,75.8 93.1,80.5 45.5,20.4 68.7,18.2 				"/>
				<polygon class="st2" points="89.1,80.7 83.7,85 26.4,41.2 50.2,37.4 				"/>
				<polygon class="st2" points="83.3,90.2 78.6,95.7 8.1,64.8 32,55.2 				"/>
				<polygon class="st2" points="78.3,99.8 73.4,106.2 0,92.9 15.2,76.4 				"/>
				<polygon class="st2" points="76.2,109.9 73,118.3 0.9,121.1 14.6,104.3 				"/>
				<polygon class="st2" points="77.3,120.4 78.5,127.5 16.9,148.1 18.3,126.9 				"/>
				<polygon class="st2" points="78.1,131.3 82,136.9 26.6,173 27.5,150.7 				"/>
				<polygon class="st2" points="84.3,140.4 88.2,145.7 42.9,190.4 38.8,172.1 				"/>
			</g>
		</g>
	</g>
</g>
</svg>
